<svg xmlns="http://www.w3.org/2000/svg" xmlns:xlink="http://www.w3.org/1999/xlink" width="500" zoomAndPan="magnify" viewBox="0 0 375 374.999991" height="500" preserveAspectRatio="xMidYMid meet" version="1.0"><defs><clipPath id="98da43e70b"><path d="M 18.75 0 L 356.25 0 C 366.605469 0 375 8.394531 375 18.75 L 375 356.25 C 375 366.605469 366.605469 375 356.25 375 L 18.75 375 C 8.394531 375 0 366.605469 0 356.25 L 0 18.75 C 0 8.394531 8.394531 0 18.75 0 Z M 18.75 0 " clip-rule="nonzero"/></clipPath><clipPath id="05c2b98948"><path d="M 0 0 L 375 0 L 375 375 L 0 375 Z M 0 0 " clip-rule="nonzero"/></clipPath><clipPath id="d2bc9f63a6"><path d="M 18.75 0 L 356.25 0 C 366.605469 0 375 8.394531 375 18.75 L 375 356.25 C 375 366.605469 366.605469 375 356.25 375 L 18.75 375 C 8.394531 375 0 366.605469 0 356.25 L 0 18.75 C 0 8.394531 8.394531 0 18.75 0 Z M 18.75 0 " clip-rule="nonzero"/></clipPath><clipPath id="d3e08fd606"><rect x="0" width="375" y="0" height="375"/></clipPath><clipPath id="f4b086669e"><path d="M 0 81.796875 L 375 81.796875 L 375 293.296875 L 0 293.296875 Z M 0 81.796875 " clip-rule="nonzero"/></clipPath></defs><g clip-path="url(#98da43e70b)"><g transform="matrix(1, 0, 0, 1, 0, 0)"><g clip-path="url(#d3e08fd606)"><g clip-path="url(#05c2b98948)"><g clip-path="url(#d2bc9f63a6)"><rect x="-82.5" width="540" fill="#ffffff" height="539.999987" y="-82.499998" fill-opacity="1"/></g></g></g></g><path stroke-linecap="butt" transform="matrix(0.75, 0, 0, 0.75, 0.0000045, 0)" fill="none" stroke-linejoin="miter" d="M 24.999997 0 L 475.000056 0 C 488.807349 0 500.000059 11.19271 500.000059 25.000003 L 500.000059 475.000062 C 500.000059 488.807355 488.807349 500.000065 475.000056 500.000065 L 24.999997 500.000065 C 11.192704 500.000065 -0.000006 488.807355 -0.000006 475.000062 L -0.000006 25.000003 C -0.000006 11.19271 11.192704 0 24.999997 0 Z M 24.999997 0 " stroke="#000000" stroke-width="8" stroke-opacity="1" stroke-miterlimit="4"/></g><g clip-path="url(#f4b086669e)"><path fill="#3b8bc2" d="M 327.59375 281.578125 L 333.425781 281.617188 C 333.554688 281.621094 333.675781 281.625 333.800781 281.628906 L 333.761719 281.628906 C 350.125 281.628906 363.441406 268.308594 363.441406 251.933594 C 363.441406 235.589844 350.167969 222.28125 333.832031 222.246094 L 327.738281 222.246094 L 327.945312 215.710938 C 327.960938 215.191406 327.980469 214.671875 327.980469 214.148438 C 327.980469 176.933594 297.71875 146.664062 260.527344 146.664062 C 259.183594 146.664062 257.742188 146.714844 255.988281 146.832031 L 252.242188 147.078125 L 250.496094 143.757812 C 234.148438 112.726562 202.253906 93.445312 167.25 93.445312 C 121 93.445312 81.011719 127.910156 74.234375 173.605469 L 73.433594 179.011719 L 67.988281 178.515625 C 66.296875 178.359375 64.722656 178.285156 63.179688 178.285156 C 34.699219 178.285156 11.53125 201.464844 11.53125 229.957031 C 11.53125 258.445312 34.699219 281.628906 63.179688 281.628906 L 327.59375 281.628906 Z M 333.761719 293.199219 C 333.730469 293.199219 333.703125 293.199219 333.671875 293.199219 L 63.179688 293.199219 C 28.324219 293.199219 -0.03125 264.828125 -0.03125 229.957031 C -0.03125 195.082031 28.324219 166.71875 63.179688 166.71875 C 63.355469 166.71875 63.527344 166.71875 63.703125 166.71875 C 68.261719 143.9375 80.300781 123.171875 97.972656 107.789062 C 117.167969 91.082031 141.773438 81.878906 167.25 81.878906 C 205.320312 81.878906 240.117188 102.183594 258.941406 135.113281 C 259.484375 135.101562 260.007812 135.09375 260.527344 135.09375 C 303.070312 135.09375 337.867188 168.898438 339.484375 211.070312 C 359.527344 213.867188 375.003906 231.125 375.003906 251.933594 C 375.003906 272.859375 359.359375 290.191406 339.160156 292.84375 L 339.160156 293.183594 L 334.109375 293.199219 C 333.992188 293.199219 333.878906 293.199219 333.761719 293.199219 " fill-opacity="1" fill-rule="nonzero"/></g></svg>