<svg xmlns="http://www.w3.org/2000/svg" xmlns:xlink="http://www.w3.org/1999/xlink" width="500" zoomAndPan="magnify" viewBox="0 0 375.12 383.03998" height="500" preserveAspectRatio="xMidYMid meet" version="1.0"><defs><clipPath id="851517fbfa"><path d="M 0.03125 0 L 374.09375 0 L 374.09375 374.0625 L 0.03125 374.0625 Z M 0.03125 0 " clip-rule="nonzero"/></clipPath><clipPath id="8e7e621d67"><path d="M 18.734375 0 L 355.390625 0 C 365.71875 0 374.09375 8.375 374.09375 18.703125 L 374.09375 355.359375 C 374.09375 365.6875 365.71875 374.0625 355.390625 374.0625 L 18.734375 374.0625 C 8.402344 374.0625 0.03125 365.6875 0.03125 355.359375 L 0.03125 18.703125 C 0.03125 8.375 8.402344 0 18.734375 0 Z M 18.734375 0 " clip-rule="nonzero"/></clipPath><clipPath id="d8a0063dbe"><path d="M 0.03125 0 L 374.09375 0 L 374.09375 374.0625 L 0.03125 374.0625 Z M 0.03125 0 " clip-rule="nonzero"/></clipPath><clipPath id="665d974272"><path d="M 18.734375 0 L 355.390625 0 C 365.71875 0 374.09375 8.375 374.09375 18.703125 L 374.09375 355.359375 C 374.09375 365.6875 365.71875 374.0625 355.390625 374.0625 L 18.734375 374.0625 C 8.402344 374.0625 0.03125 365.6875 0.03125 355.359375 L 0.03125 18.703125 C 0.03125 8.375 8.402344 0 18.734375 0 Z M 18.734375 0 " clip-rule="nonzero"/></clipPath><clipPath id="9def5bc382"><rect x="0" width="375" y="0" height="375"/></clipPath><clipPath id="f7695d088d"><path d="M 0.03125 22 L 374.09375 22 L 374.09375 286 L 0.03125 286 Z M 0.03125 22 " clip-rule="nonzero"/></clipPath></defs><g clip-path="url(#851517fbfa)"><g clip-path="url(#8e7e621d67)"><g><g clip-path="url(#9def5bc382)"><g clip-path="url(#d8a0063dbe)"><g clip-path="url(#665d974272)"><path fill="#ffffff" d="M 0.03125 0 L 374.09375 0 L 374.09375 374.0625 L 0.03125 374.0625 Z M 0.03125 0 " fill-opacity="1" fill-rule="nonzero"/></g></g></g></g><path stroke-linecap="butt" transform="matrix(0.748125, 0, 0, 0.748125, 0.0300098, 0)" fill="none" stroke-linejoin="miter" d="M 25.001662 0 L 475.001733 0 C 488.807082 0 500.001737 11.194655 500.001737 25.000004 L 500.001737 475.000075 C 500.001737 488.805424 488.807082 500.000079 475.001733 500.000079 L 25.001662 500.000079 C 11.191091 500.000079 0.00165776 488.805424 0.00165776 475.000075 L 0.00165776 25.000004 C 0.00165776 11.194655 11.191091 0 25.001662 0 Z M 25.001662 0 " stroke="#000000" stroke-width="8" stroke-opacity="1" stroke-miterlimit="4"/></g></g><g clip-path="url(#f7695d088d)"><path fill="#000000" d="M 358.5625 22.957031 L 15.558594 22.957031 C 6.78125 22.957031 0.03125 29.707031 0.03125 38.488281 L 0.03125 270.082031 C 0.03125 278.859375 6.78125 285.609375 15.558594 285.609375 L 358.5625 285.609375 C 367.339844 285.609375 374.09375 278.859375 374.09375 270.082031 L 374.09375 38.488281 C 374.09375 30.382812 367.339844 22.957031 358.5625 22.957031 Z M 358.5625 248.476562 L 15.558594 248.476562 L 15.558594 43.214844 L 358.5625 43.214844 Z M 358.5625 248.476562 " fill-opacity="1" fill-rule="nonzero"/></g><path fill="#000000" d="M 243.101562 291.011719 L 131.019531 291.011719 L 131.019531 326.121094 L 110.089844 326.121094 L 110.089844 351.105469 L 264.035156 351.105469 L 264.035156 326.121094 L 243.101562 326.121094 Z M 243.101562 291.011719 " fill-opacity="1" fill-rule="nonzero"/></svg>